<?xml version="1.0" encoding="UTF-8"?>
<!DOCTYPE svg PUBLIC "-//W3C//DTD SVG 1.0//EN" "http://www.w3.org/TR/2001/REC-SVG-20010904/DTD/svg10.dtd">
<!-- Creator: CorelDRAW 2021.5 -->
<svg xmlns="http://www.w3.org/2000/svg" xml:space="preserve" width="297mm" height="210mm" version="1.0" style="shape-rendering:geometricPrecision; text-rendering:geometricPrecision; image-rendering:optimizeQuality; fill-rule:evenodd; clip-rule:evenodd"
viewBox="0 0 29700 21000"
 xmlns:xlink="http://www.w3.org/1999/xlink"
 xmlns:xodm="http://www.corel.com/coreldraw/odm/2003">
 <defs>
  <style type="text/css">
   <![CDATA[
    .fil0 {fill:url(#id0)}
   ]]>
  </style>
  <linearGradient id="id0" gradientUnits="userSpaceOnUse" x1="15168.89" y1="2203.11" x2="15168.89" y2="18016.2">
   <stop offset="0" style="stop-opacity:1; stop-color:#5AC527"/>
   <stop offset="1" style="stop-opacity:1; stop-color:#0C663C"/>
  </linearGradient>
 </defs>
 <g id="Слой_x0020_1">
  <metadata id="CorelCorpID_0Corel-Layer"/>
  <path class="fil0" d="M10687.45 15848.49c3872.53,4156.53 10401.11,2065.91 10401.11,-3972.32 -138.59,-73.86 -4304.45,0.34 -5075.64,-0.26 -109.3,-0.62 -567.48,-2.62 -651.82,10.82 -150.89,24 -621.74,688.25 -621.74,1044.34 0,431.16 262.96,728.18 553.07,939.69 93.71,68.33 2924.46,26.85 3268.39,55.47 -942.98,2622.89 -5004.76,2537.92 -6620.17,158.96 -428.23,-630.7 -560.78,-1257.96 -641.61,-2012.94 -176.43,-1647.63 860.6,-2778.27 2252.51,-3473.73 1342.47,-670.77 1547.88,-1309.52 1725.21,-1439.45 -141.74,637.47 -751.8,1095.74 -1220.5,1481.13 -120.24,78.08 -457.11,258.13 -804.54,459.04 -416.91,241.08 -793.19,552.67 -774.15,646.06 100.64,278.75 508.96,547.48 768.94,678.03 1444.15,725.21 3040.25,-101.54 3857.62,-1357.27 53.39,-82.02 180.26,-317.57 202.77,-414.24 380.32,31.72 1164.9,817.88 1440.91,1106.75 1318.91,49.57 1545.57,-284.65 1762.74,-1124.23 -331.19,-931.04 -1680.25,-1787.69 -2513.66,-2205.07 -393.39,-197.01 -224.98,-20.47 -339.94,-595.51 -27.57,-137.89 -54.6,-262.12 -93.75,-383.93 -238.96,-743.75 -530.97,-1213.15 -1047.44,-1778.85 -396.19,-393.88 -854.11,-729.42 -1339.37,-1009.23 -189.29,-109.16 -869.04,-458.64 -974.42,-458.64 -228.72,0 -79.83,294.51 -25.67,662.59 81.22,551.89 86.93,1123.05 -53.56,1666.51 -171.89,664.95 -568.68,1270.68 -1097.64,1688.83 -354.2,280.01 -797.84,440.75 -1163.2,707.72 -3021.06,2207.33 -3435.23,6009.07 -1174.45,8919.73z"/>
 </g>
</svg>
